<?xml version="1.0" standalone="no"?>
<!DOCTYPE svg PUBLIC "-//W3C//DTD SVG 20010904//EN"
 "http://www.w3.org/TR/2001/REC-SVG-20010904/DTD/svg10.dtd">
<svg version="1.0" xmlns="http://www.w3.org/2000/svg"
 width="500.000000pt" height="500.000000pt" viewBox="0 0 500.000000 500.000000"
 preserveAspectRatio="xMidYMid meet">

<g transform="translate(0.000000,500.000000) scale(0.100000,-0.100000)"
fill="#000000" stroke="none">
<path d="M2273 3013 c26 -2 67 -2 90 0 23 2 2 3 -48 3 -49 0 -68 -1 -42 -3z"/>
<path d="M2708 3013 c23 -2 61 -2 85 0 23 2 4 4 -43 4 -47 0 -66 -2 -42 -4z"/>
<path d="M2143 3003 c9 -2 25 -2 35 0 9 3 1 5 -18 5 -19 0 -27 -2 -17 -5z"/>
<path d="M2873 3003 c9 -2 25 -2 35 0 9 3 1 5 -18 5 -19 0 -27 -2 -17 -5z"/>
<path d="M2053 2993 c9 -2 25 -2 35 0 9 3 1 5 -18 5 -19 0 -27 -2 -17 -5z"/>
<path d="M2228 2989 c-142 -11 -286 -35 -356 -59 -45 -15 -70 -33 -117 -83
-85 -89 -215 -328 -215 -394 0 -29 11 -34 51 -23 88 26 321 40 327 20 2 -5 16
-10 32 -10 41 0 60 -10 60 -30 0 -12 6 -17 18 -15 9 2 25 4 35 4 9 1 17 9 17
18 0 13 -3 14 -12 5 -16 -16 -29 -15 -22 2 3 8 0 13 -8 13 -25 -3 -139 36
-128 43 7 4 -12 5 -42 3 -37 -3 -49 -2 -38 6 10 7 -7 9 -58 6 -48 -2 -77 -9
-88 -19 -8 -9 -24 -16 -35 -16 -11 0 -35 -6 -54 -14 -19 -8 -37 -11 -40 -7
-18 30 124 304 202 391 25 28 63 56 92 69 112 48 303 71 568 70 242 -1 243 -1
244 -19 0 -10 2 -11 6 -2 8 20 26 14 20 -8 -3 -10 0 -21 7 -24 8 -3 7 -5 -1
-5 -7 -1 -10 -7 -7 -15 6 -14 -22 -30 -37 -20 -5 3 -9 -2 -9 -10 0 -9 -6 -16
-12 -16 -10 0 -10 -2 0 -8 8 -6 10 -19 6 -40 -7 -32 -18 -41 -29 -22 -3 6 -1
10 5 10 7 0 5 7 -4 16 -9 8 -16 20 -16 25 0 5 -7 9 -15 9 -19 0 -19 -11 -1
-35 8 -11 12 -25 9 -31 -6 -17 15 -54 31 -54 8 0 13 -12 13 -31 0 -19 7 -37
18 -45 10 -8 13 -14 7 -14 -7 0 -12 -7 -12 -16 0 -9 -5 -12 -12 -8 -7 4 -5 -1
4 -12 13 -14 14 -23 6 -38 -8 -15 -7 -21 6 -28 13 -7 13 -12 4 -28 -11 -17
-15 -17 -46 -4 -21 9 -75 15 -141 16 -95 1 -99 2 -41 7 l65 6 -63 9 c-42 5
-67 5 -74 -2 -6 -6 -31 -8 -57 -5 -25 3 -71 0 -101 -6 -30 -6 -68 -13 -84 -16
-16 -2 -31 -7 -35 -11 -10 -10 31 -34 43 -25 18 13 136 13 136 -1 0 -9 3 -9
12 0 15 15 90 15 172 2 173 -29 175 -29 62 -24 -134 7 -427 6 -434 -1 -3 -3
57 -5 134 -5 161 -1 465 -23 485 -36 10 -6 6 -10 -16 -15 -27 -6 -26 -7 12 -8
23 0 52 3 65 8 16 6 62 3 139 -10 217 -36 263 -22 298 86 39 120 54 360 27
413 -26 49 -104 103 -148 102 -7 -1 9 -9 36 -20 113 -44 132 -98 106 -310 -22
-179 -50 -247 -109 -264 -37 -11 -329 19 -345 35 -13 12 -8 12 104 -7 52 -8
128 -16 167 -17 65 -2 75 1 97 23 39 39 75 209 76 355 0 115 -42 161 -175 190
-151 32 -528 44 -787 24z m939 -204 c13 -13 13 -30 3 -123 -6 -59 -14 -110
-18 -114 -4 -3 -64 -4 -134 -1 -120 6 -127 7 -125 26 1 11 -4 21 -11 23 -7 1
-8 0 -2 -3 17 -8 11 -23 -7 -16 -11 4 -14 3 -9 -5 4 -7 3 -12 -2 -12 -13 0
-32 70 -32 118 0 32 5 45 23 56 36 24 165 53 285 65 7 0 20 -6 29 -14z m-547
-35 c0 -5 -4 -10 -10 -10 -5 0 -10 5 -10 10 0 6 5 10 10 10 6 0 10 -4 10 -10z
m225 -220 c-66 -3 -132 -11 -147 -18 -16 -6 -28 -10 -28 -7 0 2 12 11 28 19
20 11 57 15 147 14 l120 -2 -120 -6z m301 -22 c-3 -13 -6 -27 -6 -32 0 -4 -6
-6 -12 -3 -7 3 -40 17 -73 31 l-60 26 79 0 c76 0 78 -1 72 -22z m-856 -4 c0
-2 -12 -4 -26 -4 -14 0 -23 4 -20 9 6 8 46 4 46 -5z m37 0 c-3 -3 -12 -4 -19
-1 -8 3 -5 6 6 6 11 1 17 -2 13 -5z m323 -37 c46 -20 76 -39 78 -50 2 -10 -3
-17 -12 -17 -9 0 -16 8 -16 20 0 11 -6 20 -12 20 -7 0 -40 13 -73 29 -80 39
-59 38 35 -2z m-872 6 c-10 -2 -28 -2 -40 0 -13 2 -5 4 17 4 22 1 32 -1 23 -4z"/>
<path d="M2953 2993 c9 -2 23 -2 30 0 6 3 -1 5 -18 5 -16 0 -22 -2 -12 -5z"/>
<path d="M1998 2983 c7 -3 16 -2 19 1 4 3 -2 6 -13 5 -11 0 -14 -3 -6 -6z"/>
<path d="M3018 2983 c7 -3 16 -2 19 1 4 3 -2 6 -13 5 -11 0 -14 -3 -6 -6z"/>
<path d="M3391 2935 c-73 -17 -98 -45 -116 -130 -8 -39 -14 -88 -14 -110 1
-31 3 -25 10 25 17 138 35 170 106 196 52 18 262 18 355 -1 96 -20 227 -86
275 -139 66 -71 126 -184 174 -325 29 -85 48 -128 52 -118 4 10 2 17 -4 17 -6
0 -8 9 -4 21 5 16 4 19 -5 14 -9 -5 -10 -2 -5 14 4 13 2 21 -5 21 -6 0 -8 4
-5 10 3 5 -3 29 -13 52 -11 24 -25 60 -31 80 -7 21 -17 40 -22 44 -5 3 -7 10
-4 15 4 5 1 9 -5 9 -6 0 -8 5 -5 10 3 6 1 10 -6 10 -7 0 -9 3 -6 7 4 3 -1 12
-11 20 -11 10 -12 12 -2 8 8 -4 4 3 -10 15 -14 12 -18 18 -10 14 13 -7 13 -6
0 12 -52 67 -152 154 -185 160 -5 1 -30 10 -55 19 -53 19 -249 45 -335 44 -33
0 -84 -7 -114 -14z"/>
<path d="M3396 2870 c-38 -12 -73 -46 -85 -84 -23 -70 -43 -242 -39 -338 3
-94 4 -101 30 -123 16 -13 23 -27 18 -30 -6 -3 -10 -3 -10 1 0 3 -9 -4 -20
-17 -10 -13 -20 -19 -20 -14 0 6 -7 -1 -15 -15 -11 -20 -15 -21 -16 -7 -3 31
-4 35 -10 42 -4 3 -9 -13 -13 -36 -4 -25 -3 -45 3 -48 18 -12 32 -62 21 -76
-8 -9 -8 -14 0 -17 7 -2 13 -63 17 -171 3 -92 10 -170 14 -173 5 -3 7 1 4 8
-2 7 -6 97 -9 199 -3 102 -8 195 -12 205 -6 17 -5 17 7 4 11 -12 25 -14 59 -9
l45 6 -49 1 c-43 2 -48 4 -43 22 3 10 1 20 -4 22 -6 2 15 20 46 41 l55 37 198
1 c132 0 190 4 177 10 -16 7 -13 8 12 4 18 -2 32 -1 31 3 -1 4 2 15 7 25 6 15
3 49 -21 217 -16 108 -45 236 -59 257 -25 37 -60 45 -181 41 -86 -3 -120 -9
-153 -25 -23 -12 -40 -16 -38 -9 9 27 65 41 197 46 l135 7 -125 0 c-69 1 -138
-3 -154 -7z m262 -46 c17 -7 36 -23 41 -36 7 -20 40 -219 55 -334 l6 -42 -101
4 c-55 2 -108 8 -119 14 -10 5 -25 10 -32 9 -7 0 -3 -4 9 -9 16 -6 21 -15 17
-27 -5 -15 -4 -16 5 -3 9 12 11 4 9 -35 l-3 -50 -78 -3 c-55 -2 -77 0 -72 8 4
6 16 8 27 4 14 -4 18 -2 14 5 -5 7 4 11 23 11 26 0 31 4 30 23 -1 16 -2 18 -6
5 -3 -12 -15 -18 -36 -19 -68 -3 -82 -5 -94 -12 -9 -6 -13 0 -13 19 0 26 -1
26 -13 10 -13 -17 -14 -17 -30 -1 -12 12 -17 34 -17 76 0 79 28 275 46 318 8
18 12 36 10 40 -3 4 6 8 19 9 13 1 27 -3 31 -9 3 -6 14 -63 24 -127 10 -65 18
-101 19 -82 0 19 -6 78 -14 130 -17 112 -18 120 -5 100 6 -9 10 -10 10 -3 0 6
8 13 18 16 38 9 189 3 220 -9z"/>
<path d="M3432 2498 l-2 -48 -38 0 c-43 0 -62 -14 -61 -44 1 -18 2 -17 8 4 6
22 14 26 66 31 33 3 55 6 48 7 -7 1 -14 23 -16 50 l-3 47 -2 -47z"/>
<path d="M3530 2346 c0 -8 -6 -17 -12 -19 -8 -3 -6 -6 5 -6 11 -1 17 6 17 19
0 11 -2 20 -5 20 -3 0 -5 -6 -5 -14z"/>
<path d="M3814 2851 c19 -7 18 -8 -5 -15 -22 -7 -21 -9 16 -18 76 -20 178
-100 237 -186 56 -81 103 -242 86 -292 -2 -8 -3 -12 -1 -7 3 4 9 5 14 2 21
-14 21 52 0 124 -48 165 -161 317 -276 372 -33 16 -67 29 -75 28 -10 0 -9 -3
4 -8z m56 -21 c8 -5 11 -10 5 -10 -5 0 -17 5 -25 10 -8 5 -10 10 -5 10 6 0 17
-5 25 -10z"/>
<path d="M3791 2754 c0 -11 3 -14 6 -6 3 7 2 16 -1 19 -3 4 -6 -2 -5 -13z"/>
<path d="M2554 2752 c3 -5 0 -13 -6 -15 -9 -4 -10 -6 -1 -6 17 -1 25 16 12 25
-7 4 -9 3 -5 -4z"/>
<path d="M3812 2660 c0 -14 2 -19 5 -12 2 6 2 18 0 25 -3 6 -5 1 -5 -13z"/>
<path d="M3243 2635 c0 -22 2 -30 4 -17 2 12 2 30 0 40 -3 9 -5 -1 -4 -23z"/>
<path d="M3821 2614 c0 -11 3 -14 6 -6 3 7 2 16 -1 19 -3 4 -6 -2 -5 -13z"/>
<path d="M3232 2565 c0 -16 2 -22 5 -12 2 9 2 23 0 30 -3 6 -5 -1 -5 -18z"/>
<path d="M3831 2564 c0 -11 3 -14 6 -6 3 7 2 16 -1 19 -3 4 -6 -2 -5 -13z"/>
<path d="M3842 2515 c0 -16 2 -22 5 -12 2 9 2 23 0 30 -3 6 -5 -1 -5 -18z"/>
<path d="M3223 2485 c0 -22 2 -30 4 -17 2 12 2 30 0 40 -3 9 -5 -1 -4 -23z"/>
<path d="M1511 2444 c-1 -34 20 -59 41 -51 8 4 7 6 -4 6 -11 1 -20 12 -24 29
-10 45 -12 48 -13 16z"/>
<path d="M3852 2445 c0 -16 2 -22 5 -12 2 9 2 23 0 30 -3 6 -5 -1 -5 -18z"/>
<path d="M1418 2420 c2 -23 8 -37 14 -34 5 3 7 18 3 33 -11 43 -21 43 -17 1z"/>
<path d="M1823 2433 c15 -2 39 -2 55 0 15 2 2 4 -28 4 -30 0 -43 -2 -27 -4z"/>
<path d="M1718 2423 c12 -2 30 -2 40 0 9 3 -1 5 -23 4 -22 0 -30 -2 -17 -4z"/>
<path d="M3205 2365 c-4 -37 -5 -69 -2 -71 2 -3 8 25 12 61 4 37 5 69 2 71 -2
3 -8 -25 -12 -61z"/>
<path d="M1615 2410 c-27 -7 -27 -8 -5 -8 14 0 36 4 50 8 20 6 21 8 5 8 -11 0
-33 -4 -50 -8z"/>
<path d="M1868 2413 c12 -2 30 -2 40 0 9 3 -1 5 -23 4 -22 0 -30 -2 -17 -4z"/>
<path d="M2098 2413 c6 -2 18 -2 25 0 6 3 1 5 -13 5 -14 0 -19 -2 -12 -5z"/>
<path d="M1768 2403 c7 -3 16 -2 19 1 4 3 -2 6 -13 5 -11 0 -14 -3 -6 -6z"/>
<path d="M3232 2380 c0 -19 2 -27 5 -17 2 9 2 25 0 35 -3 9 -5 1 -5 -18z"/>
<path d="M3861 2397 c-1 -10 5 -32 12 -50 l14 -32 124 5 c68 2 100 6 72 8 -40
2 -53 7 -53 19 0 28 -33 42 -97 43 -39 0 -63 4 -66 13 -3 7 -6 5 -6 -6z"/>
<path d="M2778 2303 c7 -3 16 -2 19 1 4 3 -2 6 -13 5 -11 0 -14 -3 -6 -6z"/>
<path d="M3918 2303 c6 -2 18 -2 25 0 6 3 1 5 -13 5 -14 0 -19 -2 -12 -5z"/>
<path d="M3114 2279 c26 -21 35 -62 16 -74 -6 -3 -38 -10 -73 -14 l-62 -8 72
-2 c69 -1 71 0 81 27 11 33 0 67 -27 81 -32 18 -36 13 -7 -10z"/>
<path d="M3192 2250 c0 -14 2 -19 5 -12 2 6 2 18 0 25 -3 6 -5 1 -5 -13z"/>
<path d="M3870 2218 c0 -4 24 -7 53 -7 54 1 49 5 -15 11 -21 2 -38 0 -38 -4z"/>
<path d="M3176 2205 c-3 -8 -1 -15 4 -15 6 0 10 7 10 15 0 8 -2 15 -4 15 -2 0
-6 -7 -10 -15z"/>
<path d="M3713 2203 c9 -2 25 -2 35 0 9 3 1 5 -18 5 -19 0 -27 -2 -17 -5z"/>
<path d="M3553 2193 c15 -2 37 -2 50 0 12 2 0 4 -28 4 -27 0 -38 -2 -22 -4z"/>
<path d="M3204 2182 c2 -4 -68 -18 -157 -30 -89 -13 -211 -33 -270 -46 -59
-12 -110 -19 -112 -15 -3 4 14 10 37 14 24 4 54 12 68 18 14 6 30 11 35 12 6
0 16 4 23 8 6 5 17 5 22 2 6 -4 17 -2 24 5 8 6 35 12 60 13 25 1 46 6 46 11 0
12 -83 0 -230 -34 -69 -16 -134 -31 -145 -33 -14 -2 -6 -8 25 -17 25 -7 47
-13 50 -13 82 14 102 15 98 2 -5 -15 -78 -34 -87 -22 -3 5 -15 8 -26 7 -11 -1
-47 -2 -80 -4 -33 -1 -49 -4 -35 -7 53 -8 70 -14 70 -23 0 -6 -12 -10 -27 -10
-22 0 -25 -2 -13 -10 11 -7 5 -10 -24 -10 l-39 0 5 48 5 47 -13 -32 c-11 -25
-30 -41 -86 -69 -40 -20 -100 -56 -134 -80 -61 -43 -202 -185 -285 -287 -66
-82 -282 -229 -309 -212 -6 4 -16 3 -23 -2 -7 -5 -55 -10 -107 -12 -140 -4
-123 -11 27 -11 140 0 162 6 267 78 24 16 51 26 70 25 22 -1 24 0 7 4 l-23 5
28 29 c15 16 30 29 34 29 6 0 2 -76 -6 -100 -3 -9 -7 -11 -12 -4 -4 6 -21 13
-39 16 -37 5 -38 2 -42 -92 -1 -36 -5 -67 -7 -69 -6 -6 -591 17 -754 29 -69 5
-168 12 -221 16 -116 7 -125 11 -107 48 10 24 16 27 45 23 18 -3 33 -2 33 4 0
5 -13 9 -30 9 -29 0 -30 1 -30 51 0 35 3 48 12 43 7 -4 8 -3 4 4 -4 7 0 12 10
12 10 0 15 3 11 6 -3 3 -20 3 -38 -1 -23 -5 -28 -10 -18 -16 11 -6 11 -11 1
-21 -9 -9 -12 -9 -14 2 0 8 -4 -5 -8 -30 l-7 -45 -1 49 c-2 46 -3 48 -27 44
-26 -5 -35 6 -12 15 7 4 8 6 1 6 -6 1 -17 -6 -24 -14 -7 -8 -28 -15 -46 -15
-39 0 -45 -21 -17 -52 22 -25 -2 -23 -27 2 -38 38 -21 60 47 60 20 0 34 3 31
6 -4 3 -43 2 -87 -2 l-81 -7 0 -33 c0 -28 -4 -34 -22 -34 -16 -1 -10 -5 17
-14 53 -18 125 -29 105 -16 -11 7 -5 10 22 10 20 0 39 -4 42 -9 3 -4 -7 -6
-22 -4 l-27 3 25 -11 c14 -7 28 -11 33 -11 4 1 7 -8 7 -19 0 -21 -3 -22 -82
-15 -46 4 -93 10 -106 13 -19 4 -23 2 -20 -13 2 -14 -4 -20 -22 -22 -23 -2
-24 -2 -7 12 17 13 16 14 -13 24 -18 7 -30 18 -30 28 0 13 -3 15 -11 7 -15
-15 -3 -65 22 -97 12 -15 38 -30 62 -36 23 -6 56 -16 72 -24 38 -17 201 -50
237 -47 15 0 30 -4 34 -10 10 -17 23 -79 15 -79 -43 1 -163 50 -226 93 l-30
21 23 -25 c12 -14 22 -32 22 -40 0 -11 2 -11 9 -1 6 11 12 10 26 -5 10 -10 20
-17 22 -15 11 9 21 -2 25 -28 5 -33 -1 -37 -21 -18 -12 11 -13 9 -6 -7 4 -11
10 -28 12 -37 3 -10 9 -16 13 -13 4 2 12 -8 19 -23 11 -26 11 -26 -4 -7 -16
19 -16 19 -9 -10 4 -16 10 -37 15 -46 5 -9 6 -19 3 -22 -3 -2 16 -24 41 -48
26 -24 66 -63 90 -87 88 -86 215 -117 535 -132 118 -6 229 -13 245 -16 17 -3
219 -10 450 -14 l420 -7 130 -32 c166 -39 260 -40 406 -1 57 15 127 87 158
161 l22 56 157 47 c86 27 252 75 367 109 228 66 230 66 520 56 69 -3 97 1 120
13 69 37 103 105 111 223 3 39 7 82 8 98 2 15 4 41 5 57 1 28 4 30 40 30 l38
0 -4 72 c-5 81 -2 83 20 18 9 -25 16 -36 17 -25 0 32 -32 105 -46 105 -8 0
-14 11 -14 25 0 22 9 30 33 26 4 0 7 9 7 21 0 21 0 21 -14 2 -8 -10 -17 -16
-20 -13 -3 3 -15 40 -25 82 -32 123 -66 177 -111 177 -35 0 -55 -24 -80 -96
-29 -83 -36 -118 -60 -304 -24 -189 -33 -224 -63 -245 -29 -20 -35 -19 -39 7
-2 15 -15 25 -43 35 l-40 13 2 97 c2 54 10 152 18 218 9 66 18 138 20 160 l5
40 -10 -35 c-5 -19 -21 -120 -36 -225 -14 -104 -32 -200 -39 -211 -9 -14 -35
-27 -79 -38 -96 -24 -106 -22 -107 17 -1 33 -3 30 -13 -15 -6 -24 -14 -28
-113 -52 -160 -38 -334 -76 -350 -76 -8 0 -13 12 -13 32 0 17 -3 29 -6 25 -3
-3 0 -56 6 -117 11 -99 11 -113 -3 -127 -8 -9 -22 -13 -30 -10 -11 4 -15 40
-20 169 -14 371 -109 598 -251 598 -34 0 -46 -7 -86 -48 -26 -27 -51 -62 -57
-78 l-10 -29 61 0 c76 -1 126 -25 175 -85 20 -24 30 -40 24 -36 -7 4 -13 3
-13 -3 0 -5 5 -13 10 -16 6 -3 10 -12 10 -18 0 -7 -12 3 -26 21 -34 43 -64 54
-114 43 -23 -5 -42 -5 -48 1 -8 8 -32 1 -96 -30 -5 -3 -6 3 -3 12 5 11 3 15
-5 10 -7 -5 -9 0 -6 14 11 40 -1 23 -54 -80 -64 -126 -138 -213 -138 -164 0
17 -27 29 -35 16 -4 -6 1 -10 9 -10 9 0 16 -4 16 -8 0 -20 -170 -32 -449 -32
-261 0 -292 2 -287 16 3 8 2 12 -4 9 -15 -9 -12 21 3 33 8 7 18 7 27 2 23 -14
26 -5 20 60 -4 42 -12 66 -23 75 -13 9 -16 21 -11 46 8 44 25 69 98 153 139
157 215 223 306 264 49 23 67 25 200 26 124 1 151 4 174 20 25 16 28 22 22 55
-4 26 -2 38 7 38 6 1 82 12 167 26 211 34 236 37 251 23 9 -8 10 -7 5 7 -3 10
-6 23 -6 28 0 5 -5 9 -11 9 -5 0 -8 -4 -5 -8z m1234 -342 c29 -27 28 -32 -4
-20 -34 13 -47 13 -38 -2 4 -6 3 -8 -4 -4 -6 3 -15 -2 -21 -11 -13 -23 -14 -2
-1 31 12 31 38 33 68 6z m17 -130 c3 -5 1 -10 -4 -10 -6 0 -11 5 -11 10 0 6 2
10 4 10 3 0 8 -4 11 -10z m15 -35 c0 -8 -2 -15 -4 -15 -2 0 -6 7 -10 15 -3 8
-1 15 4 15 6 0 10 -7 10 -15z m33 -235 c1 -158 -35 -270 -88 -270 -29 0 -43
19 -24 31 20 13 31 11 23 -3 -4 -8 -3 -9 2 -5 5 5 9 14 9 20 1 7 10 32 21 57
25 55 45 154 39 195 -2 17 -6 66 -8 110 l-5 80 15 -55 c8 -30 15 -102 16 -160z
m-52 139 c11 -23 18 -56 18 -81 l-2 -43 -7 40 -7 40 -2 -46 c-1 -48 -25 -75
-38 -43 -4 12 -8 13 -13 4 -8 -13 -5 -53 7 -100 3 -14 5 -29 4 -35 -1 -10 14
8 44 50 11 16 11 12 -1 -19 -9 -21 -22 -45 -30 -53 -8 -8 -12 -18 -9 -23 3 -4
-2 -13 -10 -20 -8 -7 -15 -8 -15 -3 0 6 -9 20 -19 32 -14 16 -21 18 -24 9 -2
-7 -2 -2 0 11 2 13 0 27 -5 30 -15 9 -16 206 -2 241 1 3 2 9 1 14 -1 5 1 16 4
25 5 12 8 12 14 3 6 -9 12 -7 26 8 22 24 37 15 66 -41z m-3659 -115 c2 -19 0
-37 -4 -40 -4 -3 -8 13 -8 35 0 51 6 53 12 5z m1222 10 c3 -8 2 -13 -3 -9 -5
3 -11 -1 -14 -7 -3 -7 -4 -3 -4 10 1 25 12 29 21 6z m1126 -13 c37 -27 66 -79
51 -94 -9 -9 -11 -8 -5 7 6 15 4 17 -7 11 -8 -4 -11 -5 -7 0 5 5 -10 26 -32
48 -36 35 -45 39 -80 35 -46 -4 -50 -1 -17 12 28 12 65 4 97 -19z m-156 -34
c-16 -18 -37 -44 -47 -57 l-18 -25 12 25 c11 23 68 90 77 90 2 0 -9 -15 -24
-33z m-2221 -78 c-4 -4 -8 9 -7 29 1 59 7 71 11 23 3 -24 1 -47 -4 -52z m-311
29 c-11 -11 -32 -3 -32 12 0 4 9 6 21 3 13 -4 17 -9 11 -15z m2548 -23 c16 10
12 -7 -7 -29 -10 -12 -4 -9 12 6 23 21 39 27 67 25 35 -2 39 -6 57 -50 13 -30
18 -60 15 -80 -4 -20 -2 -27 3 -20 5 8 9 -15 9 -58 0 -39 -3 -63 -6 -53 -5 12
-9 2 -13 -29 -8 -57 -42 -127 -62 -127 -8 0 -14 -3 -14 -7 4 -23 -3 -32 -18
-27 -14 5 -15 4 -4 -4 7 -5 10 -15 6 -21 -9 -15 -38 7 -31 24 4 13 -36 13 -67
0 -15 -6 -17 -2 -15 26 3 28 -1 35 -19 37 -20 3 -21 1 -13 -28 35 -122 99
-152 180 -83 33 27 94 139 84 154 -3 5 -1 9 5 9 5 0 9 14 9 30 -1 17 2 33 5
37 4 3 7 -11 7 -32 0 -28 3 -36 11 -28 13 13 17 175 7 248 -4 28 -5 42 -2 33
3 -10 9 -18 13 -18 16 0 23 -177 11 -257 -20 -133 -71 -221 -147 -255 -36 -16
-50 -18 -75 -9 -39 14 -41 14 -32 -1 4 -7 4 -10 0 -6 -4 3 -8 9 -7 12 0 3 -15
31 -34 62 -48 80 -69 182 -62 303 3 53 13 116 21 141 15 44 15 44 9 8 -3 -23
-1 -38 5 -38 13 0 23 26 16 44 -3 8 4 16 17 19 17 5 21 11 17 31 -4 22 -3 24
14 15 10 -5 23 -7 28 -4z m-2363 -35 c39 0 63 -9 63 -23 0 -15 -150 0 -212 21
-87 29 -69 42 29 21 48 -10 102 -18 120 -19z m3538 10 c-11 -5 -29 -8 -40 -8
-16 0 -15 2 5 8 34 11 60 11 35 0z m-100 -27 c-68 -24 -528 -152 -571 -159
-47 -7 -68 -18 -63 -31 5 -11 65 5 464 123 153 46 281 81 284 78 3 -2 0 -8 -5
-13 -11 -11 -232 -80 -384 -121 -63 -17 -149 -40 -190 -52 -41 -11 -82 -22
-90 -23 -8 -1 -28 -7 -43 -14 -41 -16 -49 -14 -45 15 3 29 15 38 66 51 l34 8
-21 24 c-12 13 -18 27 -15 30 4 3 9 0 12 -8 3 -8 7 -10 11 -3 4 7 12 8 21 2
13 -8 12 -10 -2 -10 -11 0 -15 -5 -12 -15 4 -8 13 -15 21 -15 8 0 11 5 7 11
-4 7 0 9 14 5 12 -4 78 10 159 33 76 22 184 52 240 67 56 14 101 30 98 34 -2
4 8 5 23 2 26 -5 25 -6 -13 -19z m-3057 10 c-16 -2 -40 -2 -55 0 -16 2 -3 4
27 4 30 0 43 -2 28 -4z m2936 -2 c6 -10 -42 -30 -133 -56 -30 -8 -56 -15 -57
-15 -10 0 6 35 17 38 11 3 11 1 -1 -8 -12 -9 -9 -10 15 -6 39 5 68 17 77 30 5
8 8 7 8 -1 0 -9 8 -9 30 -2 16 6 27 15 24 20 -3 5 -1 9 5 9 5 0 12 -4 15 -9z
m-3034 -27 c8 -8 -23 -23 -34 -17 -5 4 -29 6 -52 4 -33 -1 -42 2 -46 17 -5 17
-1 18 61 9 36 -5 68 -11 71 -13z m210 16 c-29 -5 -5 -7 65 -4 78 2 100 0 75
-6 -28 -7 -22 -8 27 -4 34 3 127 1 205 -3 119 -7 134 -9 88 -14 -37 -5 -18 -6
60 -5 l115 1 3 -74 c2 -41 -1 -78 -5 -82 -4 -4 -8 18 -7 50 1 65 -9 101 -28
100 -10 0 -10 -2 0 -6 8 -3 12 -29 12 -80 l0 -76 -92 6 c-51 4 -136 9 -188 11
-88 4 -90 4 -25 -4 39 -4 127 -11 198 -15 72 -5 127 -12 127 -18 0 -12 -150
-6 -490 22 -342 29 -400 37 -400 60 0 10 9 26 20 36 19 17 20 17 29 -6 5 -13
7 -27 4 -31 -2 -5 1 -8 6 -8 7 0 11 27 11 69 l0 70 43 5 c23 3 53 7 67 10 14
2 48 3 75 3 l50 0 -45 -7z m-363 -22 c-3 -8 -6 -5 -6 6 -1 11 2 17 5 13 3 -3
4 -12 1 -19z m2523 -55 c0 -83 -5 -79 -13 10 -4 43 -3 66 3 62 6 -3 10 -36 10
-72z m-590 12 c-7 -9 -19 -14 -27 -11 -8 3 -12 2 -9 -3 10 -16 -68 -21 -330
-21 -278 0 -354 5 -354 25 0 9 75 11 318 9 260 -3 371 1 411 15 2 0 -2 -6 -9
-14z m-862 -8 c7 -5 12 -4 12 2 0 6 7 11 15 11 8 0 15 -7 15 -15 0 -20 -53
-20 -69 -1 -10 11 -9 14 1 12 7 -1 19 -5 26 -9z m1872 -3 c-55 -17 -57 -17
-57 -1 0 8 18 13 51 14 l51 1 -45 -14z m-230 -24 c0 -5 -2 -10 -4 -10 -3 0 -8
5 -11 10 -3 6 -1 10 4 10 6 0 11 -4 11 -10z m145 0 c-11 -5 -27 -9 -35 -9 -9
0 -8 4 5 9 11 5 27 9 35 9 9 0 8 -4 -5 -9z m-1070 -35 c-16 -8 -37 -14 -46
-15 -31 0 -204 -49 -254 -70 -55 -24 -84 -30 -163 -37 -97 -9 -118 8 -90 74 6
15 11 31 10 34 -1 4 79 7 176 9 97 1 222 5 277 10 55 4 105 7 110 8 6 0 -3 -6
-20 -13z m630 -5 c3 -5 1 -10 -4 -10 -6 0 -11 5 -11 10 0 6 2 10 4 10 3 0 8
-4 11 -10z m1256 -10 c-8 -4 -21 -5 -30 -2 -12 5 -10 8 9 12 29 8 40 3 21 -10z
m-3682 -70 c1 -26 -16 10 -23 50 l-6 35 14 -35 c8 -19 15 -42 15 -50z m1121
71 c0 -4 8 -8 18 -7 9 0 32 -3 51 -7 28 -6 32 -10 27 -29 -3 -13 -6 -31 -6
-40 0 -15 -10 -18 -62 -18 -35 1 -76 8 -93 16 -16 8 -22 12 -13 10 9 -3 22 3
30 12 11 13 11 14 0 8 -8 -5 -3 8 10 28 22 34 38 46 38 27z m1401 -98 c-8 -14
-10 -11 -7 17 8 80 10 84 13 43 2 -24 -1 -51 -6 -60z m-1474 52 c0 -8 -4 -12
-9 -9 -5 3 -6 10 -3 15 9 13 12 11 12 -6z m1333 -110 c-6 -15 -13 -26 -15 -23
-3 2 1 19 8 37 6 17 13 28 15 23 1 -5 -2 -22 -8 -37z m-44 -84 c-24 -37 -45
-55 -71 -61 -5 -2 -15 -5 -22 -7 -6 -3 -20 -3 -30 0 -14 4 -13 5 5 6 12 0 25
8 28 16 5 12 10 13 19 5 11 -9 22 0 51 39 44 59 57 61 20 2z m-18 -167 c25 -7
13 -34 -16 -34 -28 0 -72 24 -72 40 0 8 55 4 88 -6z"/>
<path d="M4355 1404 c4 -74 26 -144 47 -144 9 0 4 21 -12 50 -8 14 -20 59 -27
100 l-13 75 5 -81z"/>
<path d="M3097 1326 c20 -26 27 -28 17 -3 -3 8 -12 18 -20 21 -11 4 -10 0 3
-18z"/>
<path d="M3120 1285 c0 -5 5 -17 10 -25 5 -8 10 -10 10 -5 0 6 -5 17 -10 25
-5 8 -10 11 -10 5z"/>
<path d="M2946 1245 c-3 -9 -6 -22 -5 -28 0 -7 5 -1 10 12 5 13 8 26 5 28 -2
2 -6 -3 -10 -12z"/>
<path d="M2892 1195 c0 -16 2 -22 5 -12 2 9 2 23 0 30 -3 6 -5 -1 -5 -18z"/>
<path d="M2932 1170 c0 -19 2 -27 5 -17 2 9 2 25 0 35 -3 9 -5 1 -5 -18z"/>
<path d="M2926 1086 c3 -27 10 -58 14 -70 6 -14 7 -6 3 24 -9 66 -24 107 -17
46z"/>
<path d="M2880 1047 c0 -20 5 -37 10 -37 16 0 16 47 -1 65 -5 5 -9 -5 -9 -28z"/>
<path d="M2956 995 c-3 -9 1 -28 9 -43 11 -22 14 -23 15 -8 0 18 1 18 18 3 10
-10 25 -17 33 -16 8 0 4 4 -8 9 -13 5 -31 23 -42 40 -15 25 -20 28 -25 15z
m18 -21 c3 -8 2 -12 -4 -9 -6 3 -10 10 -10 16 0 14 7 11 14 -7z"/>
<path d="M1393 1273 c15 -2 37 -2 50 0 12 2 0 4 -28 4 -27 0 -38 -2 -22 -4z"/>
<path d="M954 1165 c0 -23 3 -25 46 -23 43 1 43 2 8 5 -30 3 -38 9 -38 24 0
10 -4 19 -8 19 -4 0 -8 -11 -8 -25z"/>
<path d="M1148 1133 c18 -2 45 -2 60 0 15 2 0 4 -33 4 -33 0 -45 -2 -27 -4z"/>
<path d="M1268 1123 c17 -2 47 -2 65 0 17 2 3 4 -33 4 -36 0 -50 -2 -32 -4z"/>
<path d="M3398 2183 c12 -2 32 -2 45 0 12 2 2 4 -23 4 -25 0 -35 -2 -22 -4z"/>
<path d="M4270 2180 c0 -5 5 -10 11 -10 5 0 7 5 4 10 -3 6 -8 10 -11 10 -2 0
-4 -4 -4 -10z"/>
<path d="M3798 2173 c-24 -6 -23 -40 2 -48 11 -3 24 -4 28 -1 5 3 22 2 38 -3
24 -7 32 -4 46 14 9 12 13 27 9 34 -6 9 -10 6 -14 -9 -5 -18 -12 -21 -43 -18
-42 3 -57 24 -22 31 22 4 22 4 -2 4 -14 1 -33 -1 -42 -4z"/>
<path d="M945 2130 c18 -8 17 -9 -7 -9 -23 -1 -28 -6 -28 -25 0 -13 6 -27 13
-30 6 -3 -5 -5 -25 -3 -21 2 -38 -1 -38 -5 0 -4 36 -8 80 -8 44 0 80 4 80 9 0
4 11 24 24 43 l24 35 -36 -8 c-20 -4 -43 -4 -53 2 -10 5 -26 9 -36 8 -16 0
-16 -1 2 -9z"/>
<path d="M1584 2108 l-19 -23 23 19 c21 18 27 26 19 26 -2 0 -12 -10 -23 -22z"/>
<path d="M2540 2088 c0 -4 14 -8 30 -8 17 0 30 2 30 4 0 2 -13 6 -30 8 -16 3
-30 1 -30 -4z"/>
<path d="M2828 2043 c7 -3 16 -2 19 1 4 3 -2 6 -13 5 -11 0 -14 -3 -6 -6z"/>
<path d="M2888 2033 c7 -3 16 -2 19 1 4 3 -2 6 -13 5 -11 0 -14 -3 -6 -6z"/>
<path d="M4191 1994 c0 -11 3 -14 6 -6 3 7 2 16 -1 19 -3 4 -6 -2 -5 -13z"/>
<path d="M1081 1974 c0 -11 3 -14 6 -6 3 7 2 16 -1 19 -3 4 -6 -2 -5 -13z"/>
<path d="M4176 1948 c-3 -13 -5 -32 -5 -43 1 -11 5 -2 10 19 10 42 6 62 -5 24z"/>
<path d="M651 1936 c-23 -25 -23 -25 -2 -19 12 3 19 8 16 11 -2 3 0 11 6 19
19 23 4 14 -20 -11z"/>
<path d="M1072 1920 c0 -19 2 -27 5 -17 2 9 2 25 0 35 -3 9 -5 1 -5 -18z"/>
<path d="M698 1933 c12 -2 30 -2 40 0 9 3 -1 5 -23 4 -22 0 -30 -2 -17 -4z"/>
<path d="M797 1900 c12 -14 29 -41 37 -60 8 -19 15 -29 16 -22 0 21 -26 65
-51 87 l-24 20 22 -25z"/>
<path d="M615 1890 c-65 -27 -82 -74 -84 -232 l-1 -108 37 2 c37 1 37 1 6 5
l-33 4 0 61 0 61 30 -41 c35 -49 75 -72 125 -72 31 0 45 9 92 55 41 41 54 61
50 76 -3 12 0 22 9 26 9 3 13 18 13 42 -2 30 -3 31 -6 9 -3 -20 -10 -28 -24
-28 -10 0 -18 3 -18 8 1 4 1 16 -1 27 -1 20 -2 20 -9 0 -7 -16 -9 -14 -14 14
-4 18 -22 48 -41 67 -27 27 -42 34 -72 33 -22 0 -48 -4 -59 -9z m99 -14 c19
-8 37 -20 41 -27 5 -8 4 -10 -3 -5 -7 4 -20 9 -29 11 -10 2 -27 6 -38 10 -15
5 -16 4 -6 -3 8 -6 10 -15 6 -22 -6 -9 -4 -11 6 -5 12 7 12 6 1 -7 -10 -13
-10 -19 3 -32 9 -9 22 -16 30 -16 7 0 16 -6 19 -12 3 -9 9 -7 20 6 16 19 16
19 17 -5 3 -45 -1 -77 -13 -106 -6 -15 -11 -31 -10 -35 1 -4 -6 -4 -15 -1 -10
4 -14 2 -10 -4 9 -14 -14 -33 -44 -35 -58 -4 -141 83 -138 144 1 16 4 12 11
-14 5 -20 19 -45 30 -55 l20 -18 -20 35 c-24 42 -27 134 -6 167 8 12 29 27 47
32 44 13 44 13 81 -3z"/>
<path d="M602 1808 c-7 -7 -12 -22 -12 -35 0 -22 3 -23 59 -21 32 2 57 6 54
11 -2 4 -10 7 -17 7 -7 0 -18 11 -24 25 -12 27 -40 33 -60 13z"/>
<path d="M740 1655 c-8 -9 -8 -15 -2 -15 12 0 26 19 19 26 -2 2 -10 -2 -17
-11z"/>
<path d="M714 1622 c5 -8 0 -12 -13 -12 -11 0 -22 -4 -25 -9 -3 -4 6 -6 19 -3
30 5 40 18 24 28 -8 4 -9 3 -5 -4z"/>
<path d="M2356 1865 c-151 -53 -194 -216 -88 -327 71 -75 167 -86 246 -31 44
31 86 86 86 112 0 9 -9 -3 -19 -26 -20 -42 -72 -85 -121 -98 -22 -5 -23 -5 -6
6 57 36 86 78 87 131 0 18 3 27 6 21 2 -7 14 -13 26 -13 18 0 19 2 7 10 -8 5
-10 10 -4 10 5 0 15 -5 22 -12 9 -9 12 -2 11 33 -1 24 -3 36 -6 27 -5 -19 -5
-19 -40 -23 -15 -2 -23 5 -28 22 -3 13 -3 29 1 35 4 6 3 8 -3 5 -6 -4 -18 4
-26 17 -30 45 -91 71 -158 67 -9 -1 -33 -12 -53 -26 -20 -13 -36 -20 -36 -15
0 20 95 68 165 83 16 4 15 5 -5 5 -14 1 -42 -5 -64 -13z m101 -73 c11 -6 26
-19 34 -29 12 -16 12 -17 -1 -7 -8 6 -25 10 -38 9 -13 -1 -25 2 -28 7 -3 4
-11 5 -17 2 -7 -4 -8 -3 -4 2 5 5 -7 14 -30 21 l-38 13 51 -4 c28 -2 59 -8 71
-14z m-138 -9 c-12 -15 -12 -16 3 -10 19 7 82 -57 75 -77 -3 -6 7 -12 22 -13
27 -2 91 -9 103 -12 9 -2 0 -78 -12 -101 -35 -65 -142 -85 -214 -41 -44 28
-75 87 -76 144 0 37 26 115 35 105 3 -3 -2 -22 -11 -43 -23 -57 -11 -120 31
-162 18 -18 39 -33 47 -33 7 1 1 7 -14 15 -16 9 -33 32 -44 60 -15 40 -15 53
-5 100 8 35 20 60 34 70 29 20 43 19 26 -2z m94 -300 c-7 -2 -19 -2 -25 0 -7
3 -2 5 12 5 14 0 19 -2 13 -5z"/>
<path d="M2282 1728 c-12 -12 -17 -70 -7 -80 3 -3 20 -2 38 1 23 5 31 12 29
24 -2 10 4 17 12 17 26 0 7 28 -26 39 -37 13 -32 13 -46 -1z m43 -37 c3 -5 1
-12 -5 -16 -5 -3 -10 1 -10 9 0 18 6 21 15 7z"/>
<path d="M2440 1646 c0 -2 7 -9 15 -16 13 -11 14 -10 9 4 -5 14 -24 23 -24 12z"/>
<path d="M2425 1620 c3 -5 11 -10 16 -10 6 0 7 5 4 10 -3 6 -11 10 -16 10 -6
0 -7 -4 -4 -10z"/>
<path d="M2400 1600 c-9 -6 -10 -10 -3 -10 6 0 15 5 18 10 8 12 4 12 -15 0z"/>
<path d="M2481 1592 c-1 -7 -12 -24 -26 -38 -21 -20 -32 -24 -62 -20 -35 5
-36 5 -8 -4 16 -5 40 -7 53 -3 27 6 56 46 49 65 -4 11 -6 10 -6 0z"/>
<path d="M3190 1876 c0 -2 8 -10 18 -17 15 -13 16 -12 3 4 -13 16 -21 21 -21
13z"/>
<path d="M1428 1863 c7 -3 16 -2 19 1 4 3 -2 6 -13 5 -11 0 -14 -3 -6 -6z"/>
<path d="M4581 1811 c12 -34 23 -60 25 -58 5 5 -26 100 -37 112 -5 5 0 -19 12
-54z"/>
<path d="M2547 1810 c18 -19 36 -46 42 -60 7 -18 10 -20 10 -7 1 10 -18 37
-41 61 -25 24 -29 27 -11 6z"/>
<path d="M1071 1784 c0 -11 3 -14 6 -6 3 7 2 16 -1 19 -3 4 -6 -2 -5 -13z"/>
<path d="M1382 1769 c-7 -12 -11 -24 -8 -27 3 -3 6 1 6 9 0 11 2 11 8 1 6 -9
12 -6 20 13 15 32 -7 36 -26 4z"/>
<path d="M1362 1710 c0 -14 2 -19 5 -12 2 6 2 18 0 25 -3 6 -5 1 -5 -13z"/>
<path d="M1351 1653 c0 -12 -6 -23 -13 -25 -20 -7 1 -26 22 -21 14 4 20 13 19
32 0 23 -1 24 -8 6 -8 -19 -9 -18 -13 5 -5 22 -5 22 -7 3z"/>
<path d="M1022 1544 c13 -23 42 -62 65 -87 l42 -46 148 -5 148 -5 -123 10
c-161 12 -202 34 -285 149 -10 14 -8 6 5 -16z"/>
<path d="M952 1515 c0 -16 2 -22 5 -12 2 9 2 23 0 30 -3 6 -5 -1 -5 -18z"/>
<path d="M862 1490 c0 -14 2 -19 5 -12 2 6 2 18 0 25 -3 6 -5 1 -5 -13z"/>
<path d="M4621 1494 c0 -11 3 -14 6 -6 3 7 2 16 -1 19 -3 4 -6 -2 -5 -13z"/>
<path d="M3371 1474 c0 -11 3 -14 6 -6 3 7 2 16 -1 19 -3 4 -6 -2 -5 -13z"/>
<path d="M3902 1460 c0 -19 2 -27 5 -17 2 9 2 25 0 35 -3 9 -5 1 -5 -18z"/>
<path d="M2325 1443 c85 -4 104 -11 105 -37 0 -6 -6 -2 -12 7 -10 12 -34 17
-104 19 l-90 3 6 -36 c6 -33 5 -35 -17 -31 -12 2 -23 2 -23 -1 0 -14 106 -26
178 -20 l79 6 -7 37 c-11 59 -13 60 -113 58 l-92 -2 90 -3z m-15 -43 c-13 -8
-13 -10 1 -10 9 0 19 -7 23 -15 4 -12 -2 -15 -27 -14 -18 0 -27 3 -21 5 7 3
10 14 7 24 -4 15 0 20 13 20 16 0 17 -2 4 -10z"/>
<path d="M3382 1420 c0 -14 2 -19 5 -12 2 6 2 18 0 25 -3 6 -5 1 -5 -13z"/>
<path d="M828 1373 c6 -2 18 -2 25 0 6 3 1 5 -13 5 -14 0 -19 -2 -12 -5z"/>
<path d="M1433 1373 c9 -2 23 -2 30 0 6 3 -1 5 -18 5 -16 0 -22 -2 -12 -5z"/>
<path d="M3392 1360 c0 -14 2 -19 5 -12 2 6 2 18 0 25 -3 6 -5 1 -5 -13z"/>
<path d="M2133 1363 c9 -2 25 -2 35 0 9 3 1 5 -18 5 -19 0 -27 -2 -17 -5z"/>
<path d="M2653 1363 c9 -2 23 -2 30 0 6 3 -1 5 -18 5 -16 0 -22 -2 -12 -5z"/>
<path d="M1613 1333 c15 -2 37 -2 50 0 12 2 0 4 -28 4 -27 0 -38 -2 -22 -4z"/>
<path d="M1808 1323 c6 -2 18 -2 25 0 6 3 1 5 -13 5 -14 0 -19 -2 -12 -5z"/>
</g>
</svg>
